<svg xmlns="http://www.w3.org/2000/svg" width="512" height="512" viewBox="0 0 512 512" role="img" aria-labelledby="title">
  <title id="title">전직 패스권 — 100% 성공</title>
  <defs>
    <linearGradient id="body" x2="1" y2="1"><stop stop-color="#353947"/><stop offset=".5" stop-color="#101724"/><stop offset="1" stop-color="#252334"/></linearGradient>
    <linearGradient id="gold" x2="1" y2="1"><stop stop-color="#fff2b9"/><stop offset=".5" stop-color="#b38a45"/><stop offset="1" stop-color="#f4d58b"/></linearGradient>
  </defs>
  <path d="M42 126H470V221a35 35 0 0 0 0 70V386H42V291a35 35 0 0 0 0-70Z" fill="url(#body)" stroke="url(#gold)" stroke-width="7"/>
  <path d="M63 147H449V201M63 365H449V311M359 153V359" fill="none" stroke="#b69b68" stroke-width="2"/>
  <circle cx="200" cy="240" r="65" fill="#0e1521" stroke="url(#gold)" stroke-width="4"/>
  <circle cx="200" cy="240" r="54" fill="none" stroke="#69668d"/>
  <path d="m200 195-31 35h19v34h24v-34h19Zm-39 79h78v9h-78Z" fill="url(#gold)"/>
  <text x="200" y="336" text-anchor="middle" fill="#eddbb4" font-family="Arial,sans-serif" font-size="16" letter-spacing="2">ADVANCEMENT PASS</text>
  <text x="405" y="250" text-anchor="middle" fill="#ffe8a6" font-family="Arial,sans-serif" font-size="30" font-weight="bold">100</text>
  <text x="405" y="283" text-anchor="middle" fill="#bea5d7" font-family="Arial,sans-serif" font-size="23">%</text>
</svg>
