<svg xmlns="http://www.w3.org/2000/svg" width="480" height="320" viewBox="0 0 480 320"><defs><linearGradient id="m" x2="1" y2="1"><stop stop-color="#534934"/><stop offset=".4" stop-color="#121518"/><stop offset="1" stop-color="#26211d"/></linearGradient><linearGradient id="g" x2="1" y2="1"><stop stop-color="#ffedb0"/><stop offset=".5" stop-color="#9c783c"/><stop offset="1" stop-color="#edcb84"/></linearGradient></defs><path d="M35 56H445V127a33 33 0 0 0 0 66V264H35V193a33 33 0 0 0 0-66Z" fill="url(#m)" stroke="url(#g)" stroke-width="7"/><path d="M54 75H426V112M54 245H426V208M352 83V236" fill="none" stroke="#b3925a" stroke-width="2"/><circle cx="175" cy="150" r="58" fill="#111415" stroke="url(#g)" stroke-width="5"/><circle cx="175" cy="150" r="46" fill="none" stroke="#685735"/><path d="M148 157 145 130l21 10 9-24 9 24 21-10-3 27Zm0 9h54v7h-54Z" fill="url(#g)"/><text x="175" y="223" fill="#eeddb4" font-family="Arial,sans-serif" font-size="16" text-anchor="middle" letter-spacing="4">EVENT PASS</text><text x="385" y="172" fill="#e7c282" font-family="Arial,sans-serif" font-size="30" text-anchor="middle">01</text></svg>
