<svg xmlns="http://www.w3.org/2000/svg" width="480" height="320" viewBox="0 0 480 320"><defs><linearGradient id="m" x2="1" y2="1"><stop stop-color="#33466d"/><stop offset=".5" stop-color="#121624"/><stop offset="1" stop-color="#40321e"/></linearGradient><linearGradient id="g" x2="1" y2="1"><stop stop-color="#fff0be"/><stop offset=".5" stop-color="#ba8b39"/><stop offset="1" stop-color="#ffe6a1"/></linearGradient></defs><path d="M35 56H445V127a33 33 0 0 0 0 66V264H35V193a33 33 0 0 0 0-66Z" fill="url(#m)" stroke="url(#g)" stroke-width="7"/><path d="M54 75H426V112M54 245H426V208M352 83V236" fill="none" stroke="#bda16b" stroke-width="2"/><path d="m180 87 14 29 32 5-23 23 5 32-28-15-28 15 5-32-23-23 32-5Z" fill="url(#g)"/><text x="180" y="206" fill="#ffe9b2" font-family="Arial,sans-serif" font-size="25" font-weight="bold" text-anchor="middle">SUPERSTAR</text><text x="180" y="231" fill="#b5c9ec" font-family="Arial,sans-serif" font-size="13" text-anchor="middle" letter-spacing="2">GUARANTEED PACK</text><text x="390" y="157" fill="#ffdfa0" font-family="Arial,sans-serif" font-size="24" font-weight="bold" text-anchor="middle">100%</text><text x="390" y="182" fill="#b5c9ec" font-family="Arial,sans-serif" font-size="12" text-anchor="middle">1 CARD</text></svg>
